HIERARCHY
ROOT root
{
	OFFSET	0	13.1	24.9
	CHANNELS 6  Xposition Yposition Zposition Xrotation Yrotation Zrotation
	JOINT spine_1
	{
		OFFSET	0	9.99999	0
		CHANNELS 3  Xrotation Yrotation Zrotation
		JOINT spine_2
		{
			OFFSET	0	112	-10
			CHANNELS 3  Xrotation Yrotation Zrotation
			JOINT spine_3
			{
				OFFSET	0	206.5	19.3
				CHANNELS 3  Xrotation Yrotation Zrotation
				JOINT spine_4
				{
					OFFSET	0	110.4	14.6
					CHANNELS 3  Xrotation Yrotation Zrotation
					JOINT neck_1
					{
						OFFSET	0	71.8	-50.3
						CHANNELS 3  Xrotation Yrotation Zrotation
						JOINT neck_2
						{
							OFFSET	0	86.2	-25.8
							CHANNELS 3  Xrotation Yrotation Zrotation
							JOINT head_ee
							{
								OFFSET	0	179.8	-8.7
								CHANNELS 3  Xrotation Yrotation Zrotation
								End Site
								{
									OFFSET	1	0	0
								}
							}
						}
					}
					JOINT left_clavicle
					{
						OFFSET	-43.2	22.4	-70.8
						CHANNELS 3  Xrotation Yrotation Zrotation
						JOINT left_shoulder
						{
							OFFSET	-93.9	-5.79999	48.7
							CHANNELS 3  Xrotation Yrotation Zrotation
							JOINT left_elbow
							{
								OFFSET	-291.4	-30.8	15.2
								CHANNELS 3  Xrotation Yrotation Zrotation
								JOINT left_lowarm_twist
								{
									OFFSET	-110.7	-3.89999	13.6
									CHANNELS 3  Xrotation Yrotation Zrotation
									JOINT left_hand
									{
										OFFSET	-110.7	-3.89999	13.6
										CHANNELS 3  Xrotation Yrotation Zrotation
										JOINT left_ee
										{
											OFFSET	-80.8	-5.10001	12.1
											CHANNELS 3  Xrotation Yrotation Zrotation
											End Site
											{
												OFFSET	1	0	0
											}
										}
									}
								}
							}
						}
					}
					JOINT right_clavicle
					{
						OFFSET	43.2	22.4	-70.8
						CHANNELS 3  Xrotation Yrotation Zrotation
						JOINT right_shoulder
						{
							OFFSET	93.9	-5.79999	48.7
							CHANNELS 3  Xrotation Yrotation Zrotation
							JOINT right_elbow
							{
								OFFSET	291.4	-30.8	15.2
								CHANNELS 3  Xrotation Yrotation Zrotation
								JOINT right_lowarm_twist
								{
									OFFSET	110.7	-3.89999	13.6
									CHANNELS 3  Xrotation Yrotation Zrotation
									JOINT right_hand
									{
										OFFSET	110.7	-3.89999	13.6
										CHANNELS 3  Xrotation Yrotation Zrotation
										JOINT right_ee
										{
											OFFSET	80.8	-5.10001	12.1
											CHANNELS 3  Xrotation Yrotation Zrotation
											End Site
											{
												OFFSET	1	0	0
											}
										}
									}
								}
							}
						}
					}
				}
			}
		}
	}
	JOINT left_hip
	{
		OFFSET	-82.8	-127.5	0.300001
		CHANNELS 3  Xrotation Yrotation Zrotation
		JOINT left_knee
		{
			OFFSET	-28.2	-396.7	2.2
			CHANNELS 3  Xrotation Yrotation Zrotation
			JOINT left_ankle
			{
				OFFSET	-11.7	-411.3	35.4
				CHANNELS 3  Xrotation Yrotation Zrotation
				JOINT left_toes
				{
					OFFSET	0	-60	-88.6
					CHANNELS 3  Xrotation Yrotation Zrotation
					JOINT left_foot_ee
					{
						OFFSET	-22.5	-16.5	-42.2
						CHANNELS 3  Xrotation Yrotation Zrotation
						End Site
						{
							OFFSET	1	0	0
						}
					}
				}
			}
		}
	}
	JOINT right_hip
	{
		OFFSET	82.8	-127.5	0.300001
		CHANNELS 3  Xrotation Yrotation Zrotation
		JOINT right_knee
		{
			OFFSET	28.2	-396.7	2.2
			CHANNELS 3  Xrotation Yrotation Zrotation
			JOINT right_ankle
			{
				OFFSET	11.7	-411.3	35.4
				CHANNELS 3  Xrotation Yrotation Zrotation
				JOINT right_toes
				{
					OFFSET	0	-60	-88.6
					CHANNELS 3  Xrotation Yrotation Zrotation
					JOINT right_foot_ee
					{
						OFFSET	22.5	-16.5	-42.2
						CHANNELS 3  Xrotation Yrotation Zrotation
						End Site
						{
							OFFSET	1	0	0
						}
					}
				}
			}
		}
	}
}
MOTION
Frames: 14
Frame Time: 0.02
3010.00629938 684.496 -1950.88305778 -5.64058276083 9.80159827723 6.69443476265 3.9431 -0.340346 -1.73673 3.94474 -0.229161 -1.75486 3.95084 0.022885 -1.7696 3.94656 -0.256835 -1.75102 -11.8817 2.53015 2.09994 -11.8756 3.43905 2.72459 -0.0 0.0 -0.0 10.1876 -0.655101 20.0755 11.0625 13.4913 59.937 0.655146 -17.9804 0.103651 44.3267 -0.593228 -5.49215 1.88253 2.05064 13.4916 -0.0 0.0 -0.0 8.08074 17.1864 -15.3447 -23.3117 13.9034 -63.721 0.643875 17.6905 -0.100199 7.79924 -0.208794 0.973622 1.43792 7.98723 -6.33024 0.0 0.0 0.0 17.7488 -31.662 4.81131 -14.2944 0.319962 2.16465 37.9583 26.0869 -5.00216 -2.39359 0.0 0.0 -0.0 0.0 -0.0 27.6731 10.4281 -9.07959 -55.9016 1.77407 -8.05867 -1.89444 -11.3776 -0.278789 -0.844878 0.0 0.0 0.0 0.0 0.0 
2983.34555872 688.062 -1948.07471845 -5.7151968443 12.2959156634 6.65734489601 3.83485 -0.217765 -1.83942 3.83672 -0.100297 -1.84954 3.83895 0.167584 -1.84466 3.83423 -0.125798 -1.84798 -12.81 2.47505 2.40373 -12.8001 3.18903 3.02517 -0.0 0.0 -0.0 10.4012 -1.4477 20.5592 11.7713 13.2898 59.6789 0.767495 -20.8165 0.140978 44.7105 -0.616676 -5.53531 1.88949 1.35466 13.266 -0.0 0.0 -0.0 8.22063 17.9332 -15.6023 -23.7038 12.9271 -64.2671 0.51951 14.4321 -0.0657776 8.14285 -0.214927 1.01708 1.40628 7.97977 -6.11853 0.0 0.0 0.0 17.1365 -30.3063 5.2791 -14.2865 0.319936 2.16343 39.7928 26.0393 -5.18273 -2.34854 0.0 0.0 -0.0 0.0 -0.0 31.3721 8.79865 -8.07476 -58.4023 2.02996 -8.34708 -3.14587 -12.9255 -0.464956 -1.23357 0.0 0.0 0.0 0.0 0.0 
2954.69487968 686.888 -1941.28480558 -5.45853488572 16.7744431144 6.50657900961 3.74038 -0.138307 -1.80727 3.7422 -0.0230449 -1.8124 3.74199 0.241747 -1.79636 3.73749 -0.0449402 -1.81199 -13.4913 2.44733 2.66127 -13.4775 3.01335 3.28037 -0.0 0.0 -0.0 10.5436 -2.18511 20.8923 12.6795 12.8672 59.236 0.857961 -23.0257 0.174758 44.9826 -0.633471 -5.5658 1.89721 0.84051 13.1157 -0.0 0.0 -0.0 8.25489 18.5986 -15.632 -23.9841 12.236 -64.4961 0.43103 12.053 -0.0455049 8.38331 -0.219064 1.04752 1.38168 7.95287 -5.96307 0.0 0.0 0.0 16.5071 -29.2623 5.98461 -14.2738 0.319892 2.16148 41.0749 26.0004 -5.30446 -2.31724 0.0 0.0 -0.0 0.0 -0.0 34.8007 7.47472 -7.80825 -59.5591 2.15257 -8.4767 -4.02045 -14.0946 -0.596291 -1.50946 0.0 0.0 0.0 0.0 0.0 
2945.92587933 686.888 -1933.87484608 -5.51570598586 18.6383990121 6.69453036038 3.74038 -0.138307 -1.80727 3.7422 -0.0230449 -1.8124 3.74199 0.241747 -1.79636 3.73749 -0.0449402 -1.81199 -13.4913 2.44733 2.66127 -13.4775 3.01335 3.28037 -0.0 0.0 -0.0 10.5436 -2.18511 20.8923 12.6795 12.8672 59.236 0.857961 -23.0257 0.174758 44.9826 -0.633471 -5.5658 1.89721 0.84051 13.1157 -0.0 0.0 -0.0 8.25489 18.5986 -15.632 -23.9841 12.236 -64.4961 0.43103 12.053 -0.0455049 8.38331 -0.219064 1.04752 1.38168 7.95287 -5.96307 0.0 0.0 0.0 16.5071 -29.2623 5.98461 -14.2738 0.319892 2.16148 41.0749 26.0004 -5.30446 -2.31724 0.0 0.0 -0.0 0.0 -0.0 34.8007 7.47472 -7.80825 -59.5591 2.15257 -8.4767 -4.02045 -14.0946 -0.596291 -1.50946 0.0 0.0 0.0 0.0 0.0 
2895.5661453 692.436 -1925.31562617 -6.20232325921 26.2657226845 7.05709079952 3.31159 -0.365771 -1.29918 3.31249 -0.282367 -1.31982 3.31867 -0.0768401 -1.34749 3.31625 -0.288668 -1.31845 -15.8567 4.482 3.65744 -15.8575 6.47023 4.98674 -0.0 0.0 -0.0 10.6262 -7.65419 21.2094 15.3607 10.6034 56.1514 1.39381 -34.6213 0.434427 48.5496 -0.866947 -5.95807 2.04881 0.737019 14.116 -0.0 0.0 -0.0 9.11265 18.654 -17.5208 -25.659 10.9463 -65.047 0.336018 9.45064 -0.0277752 9.07384 -0.230233 1.13502 1.10882 7.66233 -4.23752 0.0 0.0 0.0 9.21438 -25.1137 7.56457 -5.8908 0.19733 0.882132 40.9338 25.5809 -5.27642 -2.53328 0.0 0.0 -0.0 0.0 -0.0 46.7811 6.51492 -11.4265 -51.0032 1.31066 -7.46315 -9.67232 -18.6133 -1.46327 -2.82673 0.0 0.0 0.0 0.0 0.0 
2887.05888967 692.436 -1915.63924006 -6.31115141402 28.1944853488 7.29489870468 3.31159 -0.365771 -1.29918 3.31249 -0.282367 -1.31982 3.31867 -0.0768401 -1.34749 3.31625 -0.288668 -1.31845 -15.8567 4.482 3.65744 -15.8575 6.47023 4.98674 -0.0 0.0 -0.0 10.6262 -7.65419 21.2094 15.3607 10.6034 56.1514 1.39381 -34.6213 0.434427 48.5496 -0.866947 -5.95807 2.04881 0.737019 14.116 -0.0 0.0 -0.0 9.11265 18.654 -17.5208 -25.659 10.9463 -65.047 0.336018 9.45064 -0.0277752 9.07384 -0.230233 1.13502 1.10882 7.66233 -4.23752 0.0 0.0 0.0 9.21438 -25.1137 7.56457 -5.8908 0.19733 0.882132 40.9338 25.5809 -5.27642 -2.53328 0.0 0.0 -0.0 0.0 -0.0 46.7811 6.51492 -11.4265 -51.0032 1.31066 -7.46315 -9.67232 -18.6133 -1.46327 -2.82673 0.0 0.0 0.0 0.0 0.0 
2867.56421242 687.09 -1917.8032402 -5.79292799514 29.6142721021 6.61988820062 3.19406 -0.351912 -1.06179 3.19464 -0.283638 -1.08203 3.19981 -0.112216 -1.11294 3.1982 -0.286565 -1.08126 -15.8845 4.97761 2.88631 -15.9191 7.86916 4.43816 -0.0 0.0 -0.0 10.5613 -9.60314 21.0691 16.1116 9.90989 54.8533 1.52726 -37.1072 0.51263 50.0213 -0.970333 -6.11559 2.16421 0.680787 14.8897 -0.0 0.0 -0.0 9.20111 18.5931 -17.7209 -26.5399 11.0301 -65.5056 0.343829 9.66622 -0.0290723 8.96865 -0.2286 1.12168 1.0102 7.40222 -3.68075 0.0 0.0 0.0 7.51842 -23.5061 7.67165 -3.85411 0.139388 0.574952 40.0722 26.19 -5.21512 -2.81631 0.0 0.0 -0.0 0.0 -0.0 47.4089 7.67484 -11.8213 -47.3936 1.00282 -7.0005 -10.2186 -19.5775 -1.5518 -2.48274 0.0 0.0 0.0 0.0 0.0 
2855.0303821 692.956 -1931.78861383 -5.70655173714 29.5466442585 6.488004847 3.083 -0.332189 -0.83219 3.08335 -0.278563 -0.85164 3.0874 -0.141231 -0.884837 3.08642 -0.279197 -0.851432 -15.2002 5.33804 1.79729 -15.2646 9.15376 3.48627 -0.0 0.0 -0.0 10.5226 -10.9699 20.9698 15.7808 10.1017 54.3185 1.6212 -38.7648 0.570389 50.8558 -1.03075 -6.20372 2.24427 0.6383 15.4269 -0.0 0.0 -0.0 9.8399 18.9459 -19.1186 -26.8711 10.7491 -65.8379 0.344232 9.67733 -0.02914 9.19337 -0.232059 1.15018 0.797911 6.65101 -2.56427 0.0 0.0 0.0 5.38971 -21.2205 8.02211 -2.74939 0.103398 0.409233 41.0016 25.526 -5.28094 -2.75517 0.0 0.0 -0.0 0.0 -0.0 47.1579 8.03221 -12.6758 -41.2736 0.549774 -6.17564 -10.8167 -20.1667 -1.6472 -2.50958 0.0 0.0 0.0 0.0 0.0 
2839.56131845 685.933 -1948.17551212 -5.02455210686 28.9053046877 6.1875966699 3.02624 -0.318106 -0.70565 3.02647 -0.27256 -0.72446 3.02987 -0.154531 -0.758452 3.02917 -0.272371 -0.724531 -15.1582 5.58555 0.933997 -15.2462 10.1349 2.75474 -0.0 0.0 -0.0 10.5435 -12.8395 20.9773 16.2028 9.79966 53.3578 1.71191 -40.2954 0.628126 51.6942 -1.09275 -6.29139 2.35371 0.628348 16.1829 -0.0 0.0 -0.0 9.94533 18.6093 -19.3763 -27.3772 11.147 -65.9255 0.342318 9.62453 -0.0288191 8.76582 -0.225381 1.09598 0.650916 6.1446 -1.78598 0.0 0.0 0.0 3.87594 -19.1282 8.44213 -2.49339 0.0946021 0.370928 42.0382 25.0129 -5.35977 -2.62974 0.0 0.0 -0.0 0.0 -0.0 46.6439 8.43676 -13.1039 -36.965 0.285057 -5.5687 -11.2603 -20.5459 -1.718 -2.51621 0.0 0.0 0.0 0.0 0.0 
2831.42764795 680.665 -1962.41405548 -4.47890759307 27.8621645385 5.42840835599 2.8731 -0.284646 -0.558251 2.87324 -0.248546 -0.575231 2.87571 -0.152787 -0.607718 2.87528 -0.246845 -0.575963 -15.1481 5.7642 0.354567 -15.2511 10.8185 2.26946 -0.0 0.0 -0.0 10.3412 -14.055 20.4891 16.5477 9.55826 52.4355 1.78719 -41.5152 0.677423 52.29 -1.13759 -6.35314 2.43062 0.619707 16.7154 -0.0 0.0 -0.0 9.88819 18.2174 -19.2736 -28.0662 11.2568 -65.9008 0.335701 9.44188 -0.0277232 8.47622 -0.220628 1.05929 0.544381 5.77339 -1.22405 0.0 0.0 0.0 2.75465 -17.7208 8.73645 -2.35243 0.0896856 0.349854 42.6727 24.697 -5.40665 -2.55179 0.0 0.0 -0.0 0.0 -0.0 46.4847 8.60458 -13.5095 -33.4378 0.10289 -5.05844 -11.6032 -20.8097 -1.77275 -2.5291 0.0 0.0 0.0 0.0 0.0 
2821.81538467 683.321 -1972.95140249 -4.21715683883 27.4830603587 5.31107388755 2.5093 -0.26574 -0.484589 2.5094 -0.234366 -0.500516 2.51145 -0.147424 -0.532644 2.51113 -0.229694 -0.502678 -15.2153 5.89155 -0.0475716 -15.3294 11.3012 1.94133 -0.0 0.0 -0.0 10.2208 -14.9287 20.1872 16.7783 9.32589 51.8395 1.85033 -42.5041 0.719684 52.7072 -1.16937 -6.3961 2.49005 0.603267 17.124 -0.0 0.0 -0.0 10.0649 17.7098 -19.6992 -28.3365 11.396 -66.2814 0.334407 9.40615 -0.0275115 8.27494 -0.217215 1.0338 0.470334 5.521 -0.831328 0.0 0.0 0.0 1.56327 -16.7686 8.77891 -2.43769 0.0926659 0.3626 43.013 24.5058 -5.43064 -2.50248 0.0 0.0 -0.0 0.0 -0.0 46.8089 8.53988 -13.9559 -30.4958 -0.0247593 -4.62507 -11.8418 -20.9812 -1.81086 -2.53825 0.0 0.0 0.0 0.0 0.0 
2811.00386492 681.622 -1987.24191388 -4.41600132722 26.8397302391 5.04923548664 2.36825 0.0725883 -0.426756 2.36835 0.0995965 -0.421272 2.36759 0.169609 -0.398275 2.36738 0.104581 -0.420062 -14.9022 6.20943 0.526676 -15.0159 11.5598 2.55786 -0.0 0.0 -0.0 10.0432 -14.0999 19.8253 15.7928 9.62599 52.6956 2.07524 -45.7859 0.876395 52.3972 -1.14572 -6.3642 2.54097 0.700696 17.5189 -0.0 0.0 -0.0 10.3445 17.3047 -20.3482 -28.0267 10.6086 -66.9024 0.33442 9.40649 -0.0275134 8.43858 -0.219996 1.05452 0.312274 5.20532 0.100775 0.0 0.0 0.0 -0.192642 -16.076 8.56016 -3.23128 0.119491 0.481438 42.6146 25.341 -5.42379 -2.15727 0.0 0.0 -0.0 0.0 -0.0 46.8131 8.50435 -14.2243 -22.6128 -0.255462 -3.43823 -13.8501 -21.1848 -2.124 -2.59182 0.0 0.0 0.0 0.0 0.0 
2800.2441129 678.478 -1998.48377713 -4.63816548615 26.6996821436 4.95614000767 2.26819 0.260652 -0.352127 2.26822 0.282531 -0.334828 2.26654 0.335728 -0.281461 2.26654 0.287063 -0.33095 -14.6809 6.4229 0.923196 -14.7927 11.7224 2.97984 -0.0 0.0 -0.0 9.91646 -13.5232 19.5654 15.2662 9.71253 53.1992 2.26617 -48.2989 1.01616 52.1993 -1.13072 -6.34377 2.58214 0.739119 17.8229 -0.0 0.0 -0.0 10.386 16.9242 -20.462 -28.2943 9.90092 -67.1796 0.326143 9.17768 -0.0261769 8.55481 -0.221936 1.06924 0.201557 4.98099 0.751995 0.0 0.0 0.0 -0.858727 -15.4791 8.90828 -3.67297 0.133706 0.547734 42.2902 25.9314 -5.41537 -1.93101 0.0 0.0 -0.0 0.0 -0.0 46.0672 8.50588 -14.7455 -17.0835 -0.318958 -2.59253 -15.2061 -21.3088 -2.33582 -2.60775 0.0 0.0 0.0 0.0 0.0 
2784.22051166 671.593 -2016.34555961 -6.41827638034 26.4412989947 5.48985739589 2.72244 0.316804 -0.378674 2.72246 0.340258 -0.357748 2.72031 0.394188 -0.297279 2.72035 0.342291 -0.355803 -13.9643 6.42352 0.704548 -14.068 11.8231 2.69773 -0.0 0.0 -0.0 9.83957 -13.3223 19.4024 14.1076 8.65171 55.2923 2.5491 -51.6151 1.23286 52.6265 -1.16319 -6.38781 2.61131 1.09354 18.1672 -0.0 0.0 -0.0 10.391 16.5659 -20.4917 -30.1072 8.94912 -67.2745 0.274437 7.74196 -0.0185696 8.8937 -0.227421 1.11218 0.0779776 4.83951 1.52488 0.0 0.0 0.0 -1.03159 -15.1106 9.5422 -3.97706 0.143195 0.593438 41.4749 25.4233 -5.32181 -1.68053 0.0 0.0 -0.0 0.0 -0.0 44.2373 8.28632 -15.4382 -6.65184 -0.216171 -0.997403 -17.2129 -20.0017 -2.63517 -3.14377 0.0 0.0 0.0 0.0 0.0 
